<svg id="logosandtypes_com" xmlns="http://www.w3.org/2000/svg" viewBox="0 0 150 150"><path d="M0 0h150v150H0V0z" fill="none"/><path d="M130.8 33.6V17H19.7v56.5h3.6c0 10.3 3.1 20.4 8.9 29l-12.5 11.3v16.8h111.1V73.5h-3.3c0-10-3.5-20.6-9-28.9l12.3-11zm-6.9 41.8c-.3 8.5-2.9 16.7-7.5 23.8h-16.3c3.2-7.6 4.9-15.6 5.2-23.8h18.6zM27 72.3c.3-8.8 3-17.6 7.4-23.8h16.3c-3.1 6.9-4.9 15.1-5.1 23.8H27zm52.6-46.7c6.1 5.4 11.2 11.9 15 19.1H77.2V25.5c.8 0 1.6 0 2.4.1zm14.3 22.8L77.2 63.2V48.4h16.7zm-8-22c7.6 1.7 14.7 5.2 20.7 10.2l-8.2 7.3c-3.3-6.5-7.5-12.4-12.5-17.5zM73.7 44.6H56.3c3.8-7.2 8.9-13.7 15-19.1.8-.1 1.6 0 2.3-.1l.1 19.2zm-21.4 0H36.9c6.9-9.4 16.8-15.5 28.1-18-5.2 5.3-9.5 11.4-12.7 18zm2.3 3.8h19.1v17.8l-6.9 6H49.2c.1-8.2 1.9-16.3 5.4-23.8zm8.1 27L50.4 86.3c-.8-3.6-1.2-7.2-1.3-10.9h13.6zm10.9 9v14.9H56.9l16.7-14.9zM56.4 103h17.2v19.1c-.7 0-1.5-.1-2.2-.2-6.1-5.3-11.2-11.7-15-18.9zm8.7 18.1c-7.7-1.7-14.9-5.2-20.9-10.3l8.3-7.3c3.2 6.5 7.5 12.5 12.6 17.6zm14.4.9c-.8.1-1.6.1-2.4.1V103h17.4c-3.8 7.2-8.8 13.6-15 19zm6.3-1.1c5.3-5.2 9.6-11.3 12.7-17.9H114c-6.9 9.4-16.8 15.5-28.2 17.9zm10.5-21.7H77.2V81.3l6.8-5.9h17.7c-.2 8.2-2.1 16.3-5.4 23.8zm-8.2-26.9l12.4-11c.8 3.6 1.2 7.3 1.3 11H88.1zm-42.5 3.1c.1 4.6.7 9.1 1.7 13.5L35.6 99.2h-.8v.6c-5-7.1-7.5-15.6-7.8-24.4h18.6zm59.8-3.1c-.1-4.6-.7-9.2-1.8-13.6l11.6-10.2h1.3c4.4 6.3 7.1 15.1 7.4 23.8h-18.5z" fill="#241f20"/></svg>